<?xml version="1.0" encoding="utf-8"?>
<!-- Generator: Adobe Illustrator 17.0.0, SVG Export Plug-In . SVG Version: 6.00 Build 0)  -->
<!DOCTYPE svg PUBLIC "-//W3C//DTD SVG 1.1//EN" "http://www.w3.org/Graphics/SVG/1.1/DTD/svg11.dtd">
<svg version="1.1" id="Calque_1" xmlns="http://www.w3.org/2000/svg" xmlns:xlink="http://www.w3.org/1999/xlink" x="0px" y="0px"
	 width="720.168px" height="720px" viewBox="139.992 40 720.168 720" enable-background="new 139.992 40 720.168 720"
	 xml:space="preserve">
<path d="M500,40c-197.28,0-358.72,160.48-360,357.76c-0.64,96.16,36.32,186.88,103.84,255.2C311.36,721.44,401.6,759.36,497.76,760
	c0,0,2.24,0,2.4,0c197.28,0,358.72-160.48,360-357.76C861.28,203.84,700.8,41.28,500,40z M782.88,529.92L640,400l143.04-129.92
	c18.56,40.16,28.8,84.8,28.48,131.84C811.2,447.52,800.96,490.88,782.88,529.92z M501.92,88.48
	c107.68,0.64,202.4,56.16,257.92,139.84L500,464.48l-89.92-81.76l0,0l-169.6-154.08C296.32,144.32,392.48,88.48,501.92,88.48z
	 M217.12,270.08L360,400L216.8,530.08c-18.88-40.8-28.64-85.76-28.32-132C188.8,352.48,199.04,309.12,217.12,270.08z M500,711.52
	h-2.08c-83.2-0.48-161.12-33.44-219.68-92.64c-14.4-14.56-27.2-30.4-38.4-47.2L394.4,431.36l89.92,81.6
	c4.48,4,10.08,6.08,15.68,6.08s11.2-2.08,15.68-6.08l89.92-81.6l154.24,140.16C703.84,655.68,608.16,711.52,500,711.52z"/>
</svg>
