<?xml version="1.0" encoding="utf-8"?>
<!-- Generator: Adobe Illustrator 17.0.0, SVG Export Plug-In . SVG Version: 6.00 Build 0)  -->
<!DOCTYPE svg PUBLIC "-//W3C//DTD SVG 1.1//EN" "http://www.w3.org/Graphics/SVG/1.1/DTD/svg11.dtd">
<svg version="1.1" id="Calque_1" xmlns="http://www.w3.org/2000/svg" xmlns:xlink="http://www.w3.org/1999/xlink" x="0px" y="0px"
	 width="1000px" height="1000px" viewBox="0 0 1000 1000" enable-background="new 0 0 1000 1000" xml:space="preserve">
<path fill="#3B1726" d="M460.057,870.808c54.688-20.696,98.408-57.704,128.296-103.32
	c-111.16,37.968-233.152-20.496-272.816-131.368c-38.776-108.48,15.312-228.064,120.664-271.68
	c-52.616-14.52-109.976-13.424-164.728,7.256c-137.472,51.952-207.208,206.408-155.28,343.832
	C168.121,852.976,322.593,922.776,460.057,870.808z"/>
<path fill="#3B1726" d="M730.465,743.776h0.024l1.248,2.968l1.264,2.976c5.272,12.36,3.712,31.728-3.504,43.088l-1.696,2.712
	l-14.824,23.352l24.328-2.176h0.024l3.224-0.28l3.208-0.304c13.36-1.176,31.296,6.328,39.856,16.64l2.072,2.496l2.088,2.488
	l15.56,18.824l6.168-26.952l0.728-3.152c3.008-13.072,15.68-27.832,28.144-32.792l2.992-1.208l2.984-1.16l0.024-0.032l22.688-8.952
	l-20.944-12.576l-2.768-1.68l-2.8-1.648c-11.512-6.896-21.584-23.496-22.472-36.92l-0.088-1.328l-0.304-5.096v-0.024l-1.544-24.376
	l-18.4,16.032v0.016l-3.864,3.368l-1.024,0.896c-10.12,8.832-29.024,13.312-42.048,9.984l-6.248-1.576l-23.68-6.048L730.465,743.776
	z"/>
<path fill="#3B1726" d="M769.753,178.496l2.92,1.384l2.92,1.392c12.128,5.776,23.76,21.344,25.896,34.608l0.496,3.176l4.376,27.304
	l16.784-17.712l2.224-2.344l2.192-2.36c9.232-9.744,27.64-16.032,40.92-13.944l3.176,0.52l3.192,0.488h0.032l24.104,3.8
	l-13.208-24.288l-1.528-2.84c-6.424-11.808-6.68-31.24-0.608-43.232l1.456-2.888l1.488-2.864l11.056-21.76l-23.984,4.456h-0.032
	l-3.192,0.592l-3.16,0.592c-13.192,2.448-31.776-3.304-41.264-12.8l-0.984-0.952l-3.584-3.584l-0.024-0.016L804.129,88
	l-3.152,24.176v0.024l-0.672,5.056l-0.192,1.344c-1.744,13.32-12.936,29.2-24.888,35.336l-5.776,2.912v0.016L747.721,168
	l22.032,10.48V178.496z"/>
<path fill="#3B1726" d="M538.385,455.432l3.36,3.28c13.856,13.512,22.536,40.216,19.24,59.288l-0.784,4.608l-6.744,39.28
	l31.184-16.376l4.088-2.168l4.152-2.16c17.16-9.04,45.208-9.04,62.36,0l4.112,2.16l4.096,2.168h0.024l31.176,16.376l-6.744-39.28
	L687.121,518c-3.312-19.072,5.368-45.776,19.24-59.288l3.344-3.28l3.36-3.224l25.224-24.592l-34.848-5.064h-0.032l-9.224-1.328
	c-19.16-2.824-41.832-19.312-50.424-36.672l-0.864-1.736l-3.24-6.592v-0.032l-15.592-31.568l-15.6,31.568v0.032l-3.232,6.592
	l-0.864,1.736c-8.568,17.36-31.28,33.848-50.44,36.672l-4.632,0.664l-4.6,0.664l-34.864,5.064l25.2,24.592L538.385,455.432z"/>
<path fill="#3B1726" d="M169.753,221.424l-14.792,23.352l24.32-2.176l3.24-0.28l3.2-0.296c13.376-1.184,31.312,6.32,39.88,16.64
	l2.048,2.488l2.064,2.488h0.024l15.568,18.816l6.16-26.96l0.728-3.152c2.984-13.064,15.648-27.84,28.12-32.784l3.04-1.216
	l2.984-1.168v-0.008l22.728-8.984l-20.96-12.544l-2.776-1.68l-2.776-1.64c-11.528-6.904-21.608-23.496-22.488-36.928l-0.088-1.328
	l-0.312-5.088v-0.016l-1.576-24.352l-18.368,16.024l-0.024,0.016L235.841,144l-1.008,0.88c-10.104,8.832-29.024,13.328-42.04,9.992
	l-6.256-1.592l-23.672-6.048l9.584,22.432v0.016l1.272,2.96l1.272,2.984c5.264,12.352,3.672,31.736-3.504,43.088L169.753,221.424z"
	/>
</svg>
