<?xml version="1.0" encoding="utf-8"?>
<!-- Generator: Adobe Illustrator 17.0.0, SVG Export Plug-In . SVG Version: 6.00 Build 0)  -->
<!DOCTYPE svg PUBLIC "-//W3C//DTD SVG 1.1//EN" "http://www.w3.org/Graphics/SVG/1.1/DTD/svg11.dtd">
<svg version="1.1"
	 id="Calque_1" xmlns:dc="http://purl.org/dc/elements/1.1/" xmlns:cc="http://creativecommons.org/ns#" xmlns:rdf="http://www.w3.org/1999/02/22-rdf-syntax-ns#" xmlns:inkscape="http://www.inkscape.org/namespaces/inkscape" xmlns:svg="http://www.w3.org/2000/svg" xmlns:sodipodi="http://sodipodi.sourceforge.net/DTD/sodipodi-0.dtd"
	 xmlns="http://www.w3.org/2000/svg" xmlns:xlink="http://www.w3.org/1999/xlink" x="0px" y="0px" width="610px" height="528.07px"
	 viewBox="0 0 610 528.07" enable-background="new 0 0 610 528.07" xml:space="preserve">
<g transform="translate(0,-952.36218)">
	<path fill="#E4E4E4" d="M158.988,952.362c-38.446,0-76.708,15.345-106,46c-58.585,61.31-58.522,159.888,0,221.25l246,258.25
		c2.999,3.245,8.061,3.443,11.306,0.444c0.154-0.143,0.302-0.29,0.444-0.444c82.145-85.967,164.104-172.032,246.25-258
		c58.585-61.311,58.585-159.939,0-221.25s-153.665-61.312-212.25,0l-39.75,41.25l-39.75-41.5
		C235.946,967.707,197.434,952.362,158.988,952.362z M158.988,968.112c34.143,0,68.421,13.696,94.75,41.25l45.5,48
		c3,3.245,8.062,3.443,11.306,0.443c0.154-0.142,0.301-0.29,0.443-0.443l45.25-47.5c52.658-55.11,136.591-55.108,189.25,0
		c52.658,55.109,52.658,143.891,0,199c-80.151,83.881-160.349,167.871-240.5,251.75l-240.5-252
		c-52.614-55.168-52.658-144.142,0-199.25C90.817,981.808,124.845,968.113,158.988,968.112L158.988,968.112z"/>
</g>
</svg>
