<?xml version="1.0" encoding="utf-8"?>
<!-- Generator: Adobe Illustrator 17.0.0, SVG Export Plug-In . SVG Version: 6.00 Build 0)  -->
<!DOCTYPE svg PUBLIC "-//W3C//DTD SVG 1.1//EN" "http://www.w3.org/Graphics/SVG/1.1/DTD/svg11.dtd">
<svg version="1.1" id="Calque_1" xmlns="http://www.w3.org/2000/svg" xmlns:xlink="http://www.w3.org/1999/xlink" x="0px" y="0px"
	 width="1038.104px" height="1014.101px" viewBox="-19.733 -136.745 1038.104 1014.101"
	 enable-background="new -19.733 -136.745 1038.104 1014.101" xml:space="preserve">
<g>
	<g>
		<circle fill="#F6DBBC" cx="500" cy="400" r="166.667"/>
		<rect x="200" y="383.333" fill="#F6DBBC" width="66.667" height="33.333"/>
		<rect x="733.333" y="383.333" fill="#F6DBBC" width="66.667" height="33.333"/>
		<rect x="483.333" y="100" fill="#F6DBBC" width="33.333" height="66.667"/>
		
			<rect x="674.998" y="556.315" transform="matrix(-0.7071 0.7071 -0.7071 -0.7071 1599.1204 520.9678)" fill="#F6DBBC" width="33.333" height="70.716"/>
		
			<rect x="291.669" y="172.981" transform="matrix(-0.7071 0.7071 -0.7071 -0.7071 673.6804 137.6309)" fill="#F6DBBC" width="33.333" height="70.716"/>
		
			<rect x="272.976" y="574.991" transform="matrix(-0.7071 0.7071 -0.7071 -0.7071 944.7244 791.9973)" fill="#F6DBBC" width="70.716" height="33.333"/>
		
			<rect x="656.31" y="191.664" transform="matrix(-0.7071 0.7071 -0.7071 -0.7071 1328.0625 -133.4399)" fill="#F6DBBC" width="70.716" height="33.333"/>
		<rect x="483.333" y="633.333" fill="#F6DBBC" width="33.333" height="66.667"/>
	</g>
</g>
</svg>
