<?xml version="1.0" encoding="utf-8"?>
<!-- Generator: Adobe Illustrator 17.0.0, SVG Export Plug-In . SVG Version: 6.00 Build 0)  -->
<!DOCTYPE svg PUBLIC "-//W3C//DTD SVG 1.1//EN" "http://www.w3.org/Graphics/SVG/1.1/DTD/svg11.dtd">
<svg version="1.1" id="Calque_1" xmlns="http://www.w3.org/2000/svg" xmlns:xlink="http://www.w3.org/1999/xlink" x="0px" y="0px"
	 width="835.448px" height="964.723px" viewBox="64.5 22.777 835.448 964.723" enable-background="new 64.5 22.777 835.448 964.723"
	 xml:space="preserve">
<g>
	<g>
		<g>
			<path fill="#F6DBBC" d="M818.184,777.223H109.103c-5.016,0-9.072-4.056-9.072-9.072V313.646c0-5.016,4.056-9.072,9.072-9.072
				h709.081c5.016,0,9.072,4.056,9.072,9.072v454.505C827.256,773.167,823.2,777.223,818.184,777.223z M118.178,759.078h690.884
				v-436.36H118.178V759.078z"/>
		</g>
		<g>
			<path fill="#F6DBBC" d="M463.643,631.788c-2.137,0-4.267-0.749-5.976-2.24l-354.544-309.07
				c-2.879-2.512-3.846-6.509-2.565-10.032c1.336-3.577,4.695-5.924,8.489-5.924h709.137c3.787,0,7.207,2.347,8.541,5.924
				c1.334,3.577,0.321,7.528-2.565,10.032l-354.542,309.07C467.914,631.039,465.777,631.788,463.643,631.788L463.643,631.788z
				 M133.385,322.72l330.258,287.932L793.9,322.72H133.387H133.385z"/>
		</g>
		<g>
			<path fill="#F6DBBC" d="M818.184,777.223H109.103c-3.899,0-7.363-2.453-8.593-6.142c-1.229-3.68,0-7.736,3.045-10.135
				l276.992-213.061c4.005-3.043,9.657-2.294,12.754,1.657c3.045,4.005,2.294,9.711-1.657,12.754L135.84,759.071l655.606,0.007
				L535.642,562.304c-4.005-3.043-4.754-8.749-1.657-12.754c3.043-4.003,8.749-4.752,12.754-1.657l276.993,213.061
				c3.097,2.346,4.326,6.456,3.043,10.137c-1.229,3.673-4.693,6.133-8.593,6.133L818.184,777.223z"/>
		</g>
		<g>
			<path fill="#F6DBBC" d="M890.878,668.131h-72.692c-5.016,0-9.072-4.056-9.072-9.072s4.056-9.072,9.072-9.072h63.619V249.975
				H181.851v63.619c0,5.016-4.056,9.072-9.072,9.072s-9.072-4.056-9.072-9.072V240.85c0-5.016,4.056-9.072,9.072-9.072H890.93
				c5.016,0,9.072,4.056,9.072,9.072v418.154c0,5.077-4.056,9.126-9.126,9.126L890.878,668.131z"/>
		</g>
		<g>
			<path fill="#F6DBBC" d="M836.329,150.015c-35.068,0-63.619-28.551-63.619-63.619s28.551-63.619,63.619-63.619
				s63.619,28.551,63.619,63.619S871.449,150.015,836.329,150.015z M836.329,40.922c-25.087,0-45.474,20.387-45.474,45.474
				s20.387,45.474,45.474,45.474s45.474-20.387,45.474-45.474S861.417,40.922,836.329,40.922z"/>
		</g>
		<g>
			<path fill="#F6DBBC" d="M281.811,186.356c-25.087,0-45.474-20.387-45.474-45.474s20.387-45.474,45.474-45.474
				s45.474,20.387,45.474,45.474S306.891,186.356,281.811,186.356z M281.811,113.613c-15.048,0-27.269,12.221-27.269,27.269
				s12.221,27.271,27.269,27.271s27.271-12.223,27.271-27.271S296.859,113.613,281.811,113.613z"/>
		</g>
	</g>
</g>
</svg>
