<?xml version="1.0" encoding="utf-8"?>
<!-- Generator: Adobe Illustrator 17.0.0, SVG Export Plug-In . SVG Version: 6.00 Build 0)  -->
<!DOCTYPE svg PUBLIC "-//W3C//DTD SVG 1.1//EN" "http://www.w3.org/Graphics/SVG/1.1/DTD/svg11.dtd">
<svg version="1.1" id="Calque_1" xmlns="http://www.w3.org/2000/svg" xmlns:xlink="http://www.w3.org/1999/xlink" x="0px" y="0px"
	 width="720.168px" height="720px" viewBox="0 0 720.168 720" enable-background="new 0 0 720.168 720" xml:space="preserve">
<path fill="#FFFFFF" d="M360.005,0c-197.28,0-358.72,160.48-360,357.76c-0.64,96.16,36.32,186.88,103.84,255.2
	c67.52,68.48,157.76,106.4,253.92,107.04c0,0,2.24,0,2.4,0c197.28,0,358.72-160.48,360-357.76
	C721.285,163.84,560.805,1.28,360.005,0z M642.885,489.92L500.005,360l143.04-129.92c18.56,40.16,28.8,84.8,28.48,131.84
	C671.205,407.52,660.965,450.88,642.885,489.92z M361.925,48.48c107.68,0.64,202.4,56.16,257.92,139.84l-259.84,236.16l-89.92-81.76
	l0,0l-169.6-154.08C156.325,104.32,252.485,48.48,361.925,48.48z M77.125,230.08L220.005,360l-143.2,130.08
	c-18.88-40.8-28.64-85.76-28.32-132C48.805,312.48,59.045,269.12,77.125,230.08z M360.005,671.52h-2.08
	c-83.2-0.48-161.12-33.44-219.68-92.64c-14.4-14.56-27.2-30.4-38.4-47.2l154.56-140.32l89.92,81.6c4.48,4,10.08,6.08,15.68,6.08
	s11.2-2.08,15.68-6.08l89.92-81.6l154.24,140.16C563.845,615.68,468.165,671.52,360.005,671.52z"/>
</svg>
