<?xml version="1.0" encoding="utf-8"?>
<!-- Generator: Adobe Illustrator 17.0.0, SVG Export Plug-In . SVG Version: 6.00 Build 0)  -->
<!DOCTYPE svg PUBLIC "-//W3C//DTD SVG 1.1//EN" "http://www.w3.org/Graphics/SVG/1.1/DTD/svg11.dtd">
<svg version="1.1" id="Calque_1" xmlns="http://www.w3.org/2000/svg" xmlns:xlink="http://www.w3.org/1999/xlink" x="0px" y="0px"
	 width="900.09px" height="897.09px" viewBox="46.274 -46.736 900.09 897.09" enable-background="new 46.274 -46.736 900.09 897.09"
	 xml:space="preserve">
<title>Artboard 98</title>
<path d="M766.667,0H233.333C159.695,0,100,59.695,100,133.333v533.333C100,740.305,159.695,800,233.333,800h533.333
	C840.305,800,900,740.305,900,666.667V133.333C900,59.695,840.305,0,766.667,0z M833.333,666.667
	c0,36.819-29.848,66.667-66.667,66.667H233.333c-36.819,0-66.667-29.848-66.667-66.667V133.333
	c0-36.819,29.848-66.667,66.667-66.667h533.333c36.819,0,66.667,29.848,66.667,66.667V666.667z"/>
<path d="M500,200c-110.457,0-200,89.543-200,200s89.543,200,200,200s200-89.543,200-200S610.457,200,500,200z M500,533.333
	c-73.638,0-133.333-59.695-133.333-133.333S426.362,266.667,500,266.667S633.333,326.362,633.333,400S573.638,533.333,500,533.333z"
	/>
<circle cx="716.667" cy="183.333" r="50"/>
</svg>
