<?xml version="1.0" encoding="utf-8"?>
<!-- Generator: Adobe Illustrator 16.0.0, SVG Export Plug-In . SVG Version: 6.00 Build 0)  -->
<!DOCTYPE svg PUBLIC "-//W3C//DTD SVG 1.1//EN" "http://www.w3.org/Graphics/SVG/1.1/DTD/svg11.dtd">
<svg version="1.1" id="Calque_1" xmlns="http://www.w3.org/2000/svg" xmlns:xlink="http://www.w3.org/1999/xlink" x="0px" y="0px"
	 width="799.999px" height="774.208px" viewBox="19.001 12.896 799.999 774.208"
	 enable-background="new 19.001 12.896 799.999 774.208" xml:space="preserve">
<g>
	<g>
		<g>
			<path d="M655.578,382.771H277.083c-4.752,0-8.613-3.861-8.613-8.613c0-4.754,3.861-8.615,8.613-8.615l378.495,0.006
				c4.752,0,8.613,3.863,8.613,8.615C664.191,378.955,660.33,382.771,655.578,382.771z"/>
		</g>
		<g>
			<path d="M638.351,133.347H423.289c-4.754,0-8.615-3.861-8.615-8.615c0-4.752,3.861-8.613,8.615-8.613h206.448v-43.02H422.576
				c-4.752,0-8.613-3.861-8.613-8.613c0-4.754,3.861-8.615,8.613-8.615h215.774c4.752,0,8.613,3.861,8.613,8.615v60.201
				C646.964,129.486,643.104,133.347,638.351,133.347L638.351,133.347z"/>
		</g>
		<g>
			<path d="M216.881,726.861h-68.818c-4.752,0-8.613-3.861-8.613-8.615V64.529c0-4.752,3.861-8.613,8.613-8.613h172.755
				c4.754,0,8.614,3.861,8.614,8.613c0,4.754-3.86,8.615-8.614,8.615H156.633v636.574h51.633V124.73
				c0-4.752,3.861-8.613,8.615-8.613h103.228c4.752,0,8.614,3.861,8.614,8.613c0,4.754-3.862,8.615-8.614,8.615h-94.614v584.941
				c-0.044,4.752-3.861,8.57-8.613,8.57V726.861z"/>
		</g>
		<g>
			<path d="M715.78,787.104H216.883c-4.754,0-8.615-3.86-8.615-8.612V124.728c0-4.752,3.861-8.613,8.615-8.613H320.11
				c4.752,0,8.614,3.861,8.614,8.613c0,4.754-3.862,8.615-8.614,8.615h-94.614v636.574h481.717V133.343H423.332
				c-4.752,0-8.613-3.861-8.613-8.615c0-4.752,3.861-8.613,8.613-8.613h292.494c4.752,0,8.615,3.861,8.615,8.613v653.763
				c-0.045,4.752-3.905,8.613-8.659,8.613H715.78L715.78,787.104z"/>
		</g>
		<g>
			<path d="M775.982,107.505c-23.707,0-43.019-19.311-43.019-43.018c0-23.709,19.312-43.02,43.019-43.02
				c23.709,0,43.018,19.311,43.018,43.02C819.007,88.238,799.74,107.505,775.982,107.505z M775.982,38.689
				c-14.254,0-25.799,11.59-25.799,25.798s11.591,25.798,25.799,25.798c14.207,0,25.798-11.59,25.798-25.798
				S790.234,38.689,775.982,38.689z"/>
		</g>
		<g>
			<path d="M62.019,769.878c-23.707,0-43.018-19.311-43.018-43.018c0-23.709,19.311-43.021,43.018-43.021
				c23.709,0,43.02,19.312,43.02,43.021C105.039,750.611,85.728,769.878,62.019,769.878z M62.019,701.062
				c-14.253,0-25.798,11.589-25.798,25.799c0,14.208,11.59,25.796,25.798,25.796s25.798-11.588,25.798-25.796
				C87.817,712.65,76.272,701.062,62.019,701.062z"/>
		</g>
		<g>
			<path d="M655.578,443.024H277.083c-4.752,0-8.613-3.861-8.613-8.615c0-4.752,3.861-8.613,8.613-8.613h378.495
				c4.752,0,8.613,3.861,8.613,8.613C664.191,439.156,660.33,443.024,655.578,443.024z"/>
		</g>
		<g>
			<path d="M655.578,503.228H277.083c-4.752,0-8.613-3.86-8.613-8.614c0-4.752,3.861-8.613,8.613-8.613h378.495
				c4.752,0,8.613,3.861,8.613,8.613C664.191,499.368,660.33,503.228,655.578,503.228z"/>
		</g>
		<g>
			<path d="M655.578,563.43H277.083c-4.752,0-8.613-3.86-8.613-8.612c0-4.754,3.861-8.615,8.613-8.615h378.495
				c4.752,0,8.613,3.861,8.613,8.615C664.191,559.57,660.33,563.43,655.578,563.43z"/>
		</g>
		<g>
			<path d="M655.578,623.632H277.083c-4.752,0-8.613-3.861-8.613-8.613c0-4.754,3.861-8.614,8.613-8.614h378.495
				c4.752,0,8.613,3.86,8.613,8.614C664.191,619.816,660.33,623.632,655.578,623.632z"/>
		</g>
		<g>
			<path d="M354.513,236.568c-23.709,0-43.018-19.311-43.018-43.02V73.099c0-33.208,26.994-60.203,60.201-60.203
				s60.203,26.996,60.203,60.203v77.431c0,4.752-3.861,8.613-8.613,8.613c-4.754,0-8.615-3.861-8.615-8.613V73.099
				c0-23.707-19.311-43.018-43.018-43.018c-23.709,0-43.021,19.311-43.021,43.018v120.449c0,14.253,11.59,25.798,25.798,25.798
				s25.798-11.588,25.798-25.798V81.707c0-4.752-3.86-8.613-8.614-8.613c-4.752,0-8.613,3.861-8.613,8.613l-0.006,103.229
				c0,4.752-3.863,8.613-8.615,8.613s-8.613-3.861-8.613-8.613V81.707c0-14.253,11.589-25.796,25.796-25.796
				c14.254,0,25.799,11.588,25.799,25.796v111.841C397.488,217.257,378.221,236.568,354.513,236.568L354.513,236.568z"/>
		</g>
	</g>
</g>
</svg>
