<?xml version="1.0" encoding="utf-8"?>
<!-- Generator: Adobe Illustrator 16.0.0, SVG Export Plug-In . SVG Version: 6.00 Build 0)  -->
<!DOCTYPE svg PUBLIC "-//W3C//DTD SVG 1.1//EN" "http://www.w3.org/Graphics/SVG/1.1/DTD/svg11.dtd">
<svg version="1.1" id="Calque_1" xmlns="http://www.w3.org/2000/svg" xmlns:xlink="http://www.w3.org/1999/xlink" x="0px" y="0px"
	 width="782.966px" height="800.003px" viewBox="21.034 7.002 782.966 800.003"
	 enable-background="new 21.034 7.002 782.966 800.003" xml:space="preserve">
<g>
	<g>
		<g>
			<path d="M712.071,551.699H129.956c-50.664,0-91.929-41.217-91.929-91.93V98.938c0-50.664,41.215-91.929,91.929-91.929
				l582.115-0.007C762.735,7.002,804,48.219,804,98.931v360.832C803.952,510.475,762.727,551.699,712.071,551.699L712.071,551.699z
				 M129.956,24.095c-41.322,0-74.893,33.571-74.893,74.893v360.831c0,41.271,33.571,74.893,74.893,74.893h582.115
				c41.271,0,74.895-33.571,74.895-74.893V98.989c0-41.322-33.573-74.893-74.895-74.893
				C712.071,24.095,129.956,24.095,129.956,24.095z"/>
		</g>
		<g>
			<path d="M480.588,636.782H361.432c-4.696,0-8.494-3.796-8.494-8.493v-85.084c0-4.697,3.798-8.495,8.494-8.495h119.155
				c4.695,0,8.493,3.798,8.493,8.495v85.084C489.088,632.986,485.29,636.782,480.588,636.782L480.588,636.782z M369.925,619.796
				h102.12v-68.098h-102.12V619.796z"/>
		</g>
		<g>
			<path d="M670.399,807.005h-498.78c-12.494,0-24.384-5.448-32.527-14.887c-8.142-9.491-11.793-21.985-9.945-34.374l15.188-101.376
				c3.202-21.185,21.037-36.57,42.466-36.57h468.355c21.437,0,39.271,15.386,42.466,36.57l15.188,101.376
				c1.848,12.389-1.747,24.883-9.944,34.374c-8.135,9.439-19.976,14.887-32.469,14.887H670.399z M186.811,636.783
				c-12.944,0-23.683,9.294-25.634,22.033l-15.19,101.378c-1.102,7.446,1.046,15.041,5.994,20.733
				c4.948,5.693,12.093,8.991,19.632,8.991h498.786c7.544,0,14.689-3.298,19.632-8.991c4.948-5.692,7.096-13.287,5.994-20.733
				l-15.19-101.378c-1.895-12.787-12.689-22.033-25.634-22.033H186.811L186.811,636.783z"/>
		</g>
		<g>
			<path d="M225.282,772.983c-14.087,0-25.529-11.442-25.529-25.529c0-14.088,11.442-25.529,25.529-25.529
				c14.087,0,25.528,11.44,25.528,25.529C250.811,761.541,239.321,772.983,225.282,772.983z M225.282,738.904
				c-4.697,0-8.493,3.798-8.493,8.493c0,4.696,3.796,8.492,8.493,8.492c4.695,0,8.493-3.796,8.493-8.492
				C233.775,742.75,229.977,738.904,225.282,738.904z"/>
		</g>
		<g>
			<path d="M301.875,772.983c-14.088,0-25.528-11.442-25.528-25.529c0-14.088,11.44-25.529,25.528-25.529
				c14.087,0,25.529,11.44,25.529,25.529C327.404,761.541,315.912,772.983,301.875,772.983z M301.875,738.904
				c-4.697,0-8.493,3.798-8.493,8.493c0,4.696,3.796,8.492,8.493,8.492c4.695,0,8.493-3.796,8.493-8.492
				C310.368,742.75,306.57,738.904,301.875,738.904z"/>
		</g>
		<g>
			<path d="M225.282,704.882c-14.087,0-25.529-11.441-25.529-25.529c0-14.087,11.442-25.528,25.529-25.528
				c14.087,0,25.528,11.441,25.528,25.528C250.81,693.44,239.321,704.882,225.282,704.882z M225.282,670.854
				c-4.697,0-8.493,3.798-8.493,8.492c0,4.697,3.796,8.493,8.493,8.493c4.695,0,8.493-3.796,8.493-8.493
				C233.775,674.652,229.977,670.854,225.282,670.854z"/>
		</g>
		<g>
			<path d="M301.875,704.882c-14.088,0-25.528-11.441-25.528-25.529c0-14.087,11.44-25.528,25.528-25.528
				c14.087,0,25.529,11.441,25.529,25.528C327.404,693.44,315.912,704.882,301.875,704.882z M301.875,670.854
				c-4.697,0-8.493,3.798-8.493,8.492c0,4.697,3.796,8.493,8.493,8.493c4.695,0,8.493-3.796,8.493-8.493
				C310.368,674.652,306.57,670.854,301.875,670.854z"/>
		</g>
		<g>
			<path d="M378.466,704.882c-14.087,0-25.528-11.441-25.528-25.529c0-14.087,11.442-25.528,25.528-25.528
				c14.088,0,25.529,11.441,25.529,25.528C403.995,693.44,392.505,704.882,378.466,704.882z M378.466,670.854
				c-4.694,0-8.493,3.798-8.493,8.492c0,4.697,3.799,8.493,8.493,8.493c4.697,0,8.493-3.796,8.493-8.493
				C386.959,674.652,383.163,670.854,378.466,670.854z"/>
		</g>
		<g>
			<path d="M455.059,704.882c-14.086,0-25.528-11.441-25.528-25.529c0-14.087,11.441-25.528,25.528-25.528
				c14.088,0,25.529,11.441,25.529,25.528C480.588,693.44,469.098,704.882,455.059,704.882z M455.059,670.854
				c-4.694,0-8.492,3.798-8.492,8.492c0,4.697,3.798,8.493,8.492,8.493c4.697,0,8.493-3.796,8.493-8.493
				C463.552,674.652,459.756,670.854,455.059,670.854z"/>
		</g>
		<g>
			<path d="M531.653,704.882c-14.088,0-25.529-11.441-25.529-25.529c0-14.087,11.44-25.528,25.529-25.528
				c14.087,0,25.528,11.441,25.528,25.528C557.182,693.44,545.692,704.882,531.653,704.882z M531.653,670.854
				c-4.697,0-8.493,3.798-8.493,8.492c0,4.697,3.796,8.493,8.493,8.493c4.694,0,8.493-3.796,8.493-8.493
				C540.146,674.652,536.348,670.854,531.653,670.854z"/>
		</g>
		<g>
			<path d="M608.242,704.882c-14.087,0-25.529-11.441-25.529-25.529c0-14.087,11.442-25.528,25.529-25.528
				c14.088,0,25.529,11.441,25.529,25.528C633.771,693.44,622.281,704.882,608.242,704.882z M608.242,670.854
				c-4.695,0-8.493,3.798-8.493,8.492c0,4.697,3.798,8.493,8.493,8.493c4.697,0,8.495-3.796,8.495-8.493
				C616.737,674.652,612.889,670.854,608.242,670.854z"/>
		</g>
		<g>
			<path d="M455.059,772.983h-76.593c-14.087,0-25.528-11.442-25.528-25.529c0-14.088,11.442-25.529,25.528-25.529l76.593-0.007
				c14.088,0,25.529,11.44,25.529,25.529C480.588,761.533,469.098,772.983,455.059,772.983L455.059,772.983z M378.466,738.904
				c-4.694,0-8.493,3.798-8.493,8.493c0,4.696,3.799,8.492,8.493,8.492l76.593,0.008c4.697,0,8.493-3.799,8.493-8.493
				c0-4.695-3.796-8.493-8.493-8.493L378.466,738.904z"/>
		</g>
		<g>
			<path d="M531.653,772.983c-14.088,0-25.529-11.442-25.529-25.529c0-14.088,11.44-25.529,25.529-25.529
				c14.087,0,25.528,11.44,25.528,25.529C557.181,761.541,545.692,772.983,531.653,772.983z M531.653,738.904
				c-4.697,0-8.493,3.798-8.493,8.493c0,4.696,3.796,8.492,8.493,8.492c4.694,0,8.493-3.796,8.493-8.492
				C540.146,742.75,536.348,738.904,531.653,738.904z"/>
		</g>
		<g>
			<path d="M608.242,772.983c-14.087,0-25.529-11.442-25.529-25.529c0-14.088,11.442-25.529,25.529-25.529
				c14.088,0,25.529,11.44,25.529,25.529C633.771,761.541,622.281,772.983,608.242,772.983z M608.242,738.904
				c-4.695,0-8.493,3.798-8.493,8.493c0,4.696,3.798,8.492,8.493,8.492c4.697,0,8.495-3.796,8.495-8.492
				C616.737,742.75,612.889,738.904,608.242,738.904z"/>
		</g>
		<g>
			<path d="M795.457,458.061H46.56c-4.697,0-8.493-3.796-8.493-8.492c0-4.695,3.796-8.493,8.493-8.493h748.897
				c4.695,0,8.493,3.798,8.493,8.493C803.95,454.265,800.152,458.061,795.457,458.061z"/>
		</g>
		<g>
			<path d="M544.394,258.116c-2.197,0-4.344-0.851-5.993-2.499c-3.349-3.3-3.349-8.698,0-12.038l114.865-114.868
				c3.35-3.348,8.698-3.348,12.038,0c3.351,3.348,3.351,8.698,0,12.038L550.438,255.618
				C548.745,257.266,546.597,258.116,544.394,258.116L544.394,258.116z"/>
		</g>
		<g>
			<path d="M340.143,364.482c-2.197,0-4.346-0.849-5.993-2.499c-3.351-3.348-3.351-8.696,0-12.036l221.283-221.284
				c3.349-3.35,8.696-3.35,12.036,0c3.351,3.348,3.351,8.696,0,12.036L346.188,361.984
				C344.495,363.633,342.347,364.482,340.143,364.482L340.143,364.482z"/>
		</g>
		<g>
			<path d="M769.924,653.817c-18.783,0-34.021-15.288-34.021-34.021c0-18.783,15.288-34.021,34.021-34.021
				c18.733,0,34.021,15.288,34.021,34.021C803.953,638.529,788.715,653.817,769.924,653.817z M769.924,602.76
				c-9.392,0-17.036,7.645-17.036,17.036c0,9.393,7.645,17.036,17.036,17.036c9.393,0,17.036-7.644,17.036-17.036
				C786.96,610.404,779.323,602.76,769.924,602.76z"/>
		</g>
		<g>
			<path d="M72.098,687.843c-28.182,0-51.064-22.882-51.064-51.063c0-28.181,22.882-51.063,51.064-51.063
				c28.18,0,51.063,22.882,51.063,51.063S100.223,687.843,72.098,687.843z M72.098,602.757c-18.783,0-34.021,15.288-34.021,34.021
				c0,18.783,15.286,34.021,34.021,34.021c18.781,0,34.021-15.286,34.021-34.021C106.119,618.045,90.831,602.757,72.098,602.757z"/>
		</g>
	</g>
</g>
</svg>
